:SAMPLES-PER-SECOND 30
:FULLY-SPECIFIED
:DEGREES
464
root  -66.0285 40.5834 0.107885 -166.029 0.884155 178.765
RightUpLeg  -30.2313 -12.7645 1.0161
RightLeg  12.3975 -13.642 3.06578
RightFoot  5.51872 1.44294 -9.45164
RightToes  0.000482159 0.542163 -0.142577
Spine  58.3658 -2.7752 7.2148
Spine1  5.89466 1.32329 -1.57283
HEad  -30.841 -3.83153 -1.8686
LeftShoulder1  12.0697 -23.277 -38.7659
LeftArm  -17.5209 -29.5849 -30.0882
LeftForeArm  22.0043 -3.75422 -4.43654
LeftHand  -0.25398 0.0180481 5.50724
RightShoulder  5.42348 14.0052 24.8284
RightArm  -7.70468 42.6902 39.603
RightForeArm  -6.9767 7.99046 8.66213
RightHand  -5.7305 14.0506 -33.7008
LeftUpLeg  -34.949 20.7612 -6.3321
LeftLeg  12.0855 4.76416 -2.30858
LeftFoot  13.5712 -0.328154 1.0621
LeftToes  1.06247e-005 4.65854e-005 -8.18501e-006
465
root  -65.8824 40.7283 0.164714 -167.677 -0.014328 178.178
RightUpLeg  -26.986 -10.0347 -1.76682
RightLeg  10.1319 -17.7056 4.26999
RightFoot  6.1222 1.52013 -9.59346
RightToes  0.000482159 0.542163 -0.142577
Spine  56.3583 -2.41181 7.0443
Spine1  5.16424 1.04314 -0.815328
HEad  -30.3316 -3.59563 -1.81442
LeftShoulder1  12.3749 -22.1524 -41.784
LeftArm  -16.2125 -23.5934 -29.167
LeftForeArm  21.7104 -4.40421 -4.79361
LeftHand  -0.25398 0.0180481 5.50724
RightShoulder  5.98231 14.0809 27.9875
RightArm  -6.77203 35.8403 37.631
RightForeArm  -8.53254 8.77959 8.90665
RightHand  -5.84335 14.2537 -33.9873
LeftUpLeg  -32.4562 18.2048 -5.09611
LeftLeg  13.4424 0.394396 -1.49784
LeftFoot  10.9563 0.830043 -4.62553
LeftToes  1.06247e-005 4.65854e-005 -8.18501e-006
466
root  -65.8204 40.8224 0.230235 -169.499 -0.662857 177.815
RightUpLeg  -24.1947 -9.45651 -2.89591
RightLeg  8.623 -18.9759 4.9142
RightFoot  6.53978 1.5645 -9.62894
RightToes  0.000482159 0.542163 -0.142577
Spine  54.5749 -2.29512 7.03183
Spine1  4.56253 0.906286 -0.661891
HEad  -29.8102 -3.18551 -2.04722
LeftShoulder1  12.4593 -21.0335 -44.1567
LeftArm  -15.3567 -17.9689 -27.8057
LeftForeArm  21.3496 -5.18325 -4.99789
LeftHand  -0.25398 0.0180481 5.50724
RightShoulder  6.42784 14.0751 30.5894
RightArm  -6.10614 29.3156 35.7385
RightForeArm  -9.12169 9.14882 9.01586
RightHand  -5.94693 14.5803 -34.0223
LeftUpLeg  -30.2569 15.6 -4.13108
LeftLeg  17.9713 -2.05725 -0.201513
LeftFoot  4.99226 0.91989 -6.45129
LeftToes  1.06247e-005 4.65854e-005 -8.18501e-006
467
root  -65.8611 40.878 0.299314 -171.289 -1.17093 177.752
RightUpLeg  -21.7155 -9.78404 -3.35742
RightLeg  7.58316 -18.9947 5.27364
RightFoot  6.86806 1.55804 -9.39925
RightToes  0.000482159 0.542163 -0.142577
Spine  52.6734 -2.52529 7.38943
Spine1  4.42912 0.815365 -1.0815
HEad  -29.6829 -2.41364 -2.90845
LeftShoulder1  12.2908 -20.0697 -45.4112
LeftArm  -15.2256 -12.8241 -26.6273
LeftForeArm  21.2959 -6.17393 -4.91058
LeftHand  -0.25398 0.0180481 5.50724
RightShoulder  6.62858 13.8816 32.1654
RightArm  -5.82377 23.2877 34.634
RightForeArm  -9.47156 9.36602 9.00541
RightHand  -5.68705 14.1524 -33.295
LeftUpLeg  -27.4255 10.8079 -1.97243
LeftLeg  23.3237 1.95145 1.2669
LeftFoot  -0.591872 0.376255 -3.9459
LeftToes  1.06247e-005 4.65854e-005 -8.18501e-006
468
root  -65.9816 40.8874 0.358996 -172.793 -1.62154 177.941
RightUpLeg  -19.7398 -9.99616 -3.65401
RightLeg  6.94012 -19.0432 5.41319
RightFoot  7.04534 1.51506 -9.03594
RightToes  0.000482159 0.542163 -0.142577
Spine  50.3665 -2.77031 7.97996
Spine1  4.71584 0.748606 -1.36603
HEad  -30.0665 -1.04569 -4.49842
LeftShoulder1  12.1206 -19.3695 -46.1935
LeftArm  -15.6468 -8.25894 -25.5373
LeftForeArm  21.5402 -7.23407 -4.62611
LeftHand  -0.25398 0.0180481 5.50724
RightShoulder  6.6339 13.5162 33.017
RightArm  -5.76708 17.6375 33.9749
RightForeArm  -10.2988 9.59186 8.93989
RightHand  -5.16132 12.9093 -32.3444
LeftUpLeg  -24.533 7.76484 -1.10972
LeftLeg  27.533 5.0691 3.1775
LeftFoot  -3.3944 0.143916 -1.85972
LeftToes  1.06247e-005 4.65854e-005 -8.18501e-006
469
root  -66.1409 40.86 0.407457 -174.047 -1.84378 178.392
RightUpLeg  -18.2292 -9.90828 -3.65252
RightLeg  6.61445 -19.1239 5.36129
RightFoot  7.0634 1.46847 -8.74063
RightToes  0.000482159 0.542163 -0.142577
Spine  47.9217 -2.83807 8.41503
Spine1  4.89158 0.664993 -1.21776
HEad  -30.4691 1.22332 -6.59144
LeftShoulder1  12.0201 -18.7111 -47.2027
LeftArm  -16.1296 -3.89419 -24.0046
LeftForeArm  21.4556 -8.3615 -4.34747
LeftHand  -0.25398 0.0180481 5.50724
RightShoulder  6.7174 13.3203 33.9634
RightArm  -5.57283 12.1336 32.9252
RightForeArm  -11.1802 9.59719 8.94901
RightHand  -4.72506 11.7153 -31.7171
LeftUpLeg  -21.1104 6.14195 -0.572284
LeftLeg  29.668 5.25356 3.56231
LeftFoot  -4.68141 0.17749 -2.6169
LeftToes  1.06247e-005 4.65854e-005 -8.18501e-006
470
root  -66.3308 40.8308 0.453034 -175.217 -1.55138 179.12
RightUpLeg  -16.9022 -9.50882 -3.29338
RightLeg  6.28332 -18.9912 5.31836
RightFoot  7.13576 1.42224 -8.42124
RightToes  0.000482159 0.542163 -0.142577
Spine  45.5025 -2.69223 8.59969
Spine1  5.00663 0.718753 -0.978703
HEad  -30.4696 4.42621 -8.78676
LeftShoulder1  11.7814 -18.0245 -47.7554
LeftArm  -16.7672 0.397738 -22.689
LeftForeArm  20.8576 -9.3533 -3.98161
LeftHand  -0.25398 0.0180481 5.50724
RightShoulder  6.77496 13.1287 34.7624
RightArm  -5.43392 6.80543 31.7293
RightForeArm  -11.1278 9.34653 8.94714
RightHand  -4.35922 10.896 -30.7801
LeftUpLeg  -16.7272 6.26924 -0.137185
LeftLeg  29.0555 3.85421 2.6639
LeftFoot  -6.86227 0.197373 -3.97681
LeftToes  1.06247e-005 4.65854e-005 -8.18501e-006
